<svg width="143" height="121" viewBox="0 0 143 121" fill="none" xmlns="http://www.w3.org/2000/svg">
<g filter="url(#filter0_d_32_1442)">
<g clip-path="url(#clip0_32_1442)">
<path fill-rule="evenodd" clip-rule="evenodd" d="M43.8507 11.7294C47.3373 14.342 52.3394 13.7934 55.4634 10.8368C52.0791 15.3554 46.1937 16.6757 42.3166 13.7748C38.4395 10.8833 38.0397 4.85846 41.4241 0.339844C39.4716 4.17044 40.3548 9.12604 43.8507 11.7294ZM134.892 64.084C130.179 50.8442 120.704 41.2026 108.236 36.9444C107.753 36.777 107.26 36.6189 106.777 36.4702C95.8706 32.277 95.2291 29.3575 95.1454 24.9784C95.1268 29.3575 94.1877 32.2956 79.8509 37.2698H79.9067C76.8943 38.3483 73.9934 39.7615 71.2692 41.5095C68.8891 43.0343 68.201 46.1954 69.7258 48.5756C71.2507 50.9558 74.4118 51.6438 76.792 50.119C85.1412 44.7636 95.6568 43.4527 104.926 46.6231C114.391 49.8494 121.606 57.2688 125.26 67.5148C126.59 71.2617 127.445 75.3712 127.817 79.7782L92.0214 79.6109C91.6123 79.49 91.1753 79.4342 90.7198 79.4342C90.7105 79.4342 90.7012 79.4342 90.7012 79.4342L52.7764 79.5551H52.6741C52.7857 78.9508 52.9159 78.3557 53.0739 77.77C53.0739 77.77 53.0739 77.77 53.0739 77.7607C53.2227 77.1842 53.3993 76.6264 53.5946 76.0871C55.3146 71.2431 58.6989 67.7472 63.1153 66.241C67.4386 64.7627 72.3664 65.3763 76.2713 67.8867C78.6515 69.4115 81.8127 68.7234 83.3375 66.3433C84.8623 63.9631 84.1743 60.8019 81.7941 59.2771C75.2858 55.1025 67.0575 54.0798 59.8054 56.5622C57.3229 57.4083 55.045 58.6077 52.9995 60.1325L52.8601 24.5693C52.8508 21.4918 50.3497 19.0094 47.2815 19.0094H47.2536C44.1761 19.0187 41.6937 21.529 41.703 24.6158L41.9168 77.77C41.9168 78.0861 41.9447 78.3929 42.0098 78.6997C42.1586 78.709 42.3166 78.709 42.4654 78.6997C42.4654 78.6997 42.087 78.7037 42.0098 78.6997C41.9807 78.9166 42.4004 79.0592 42.4004 79.0592C42.4004 79.0592 41.9803 78.9192 42.0098 78.6997H40.2061C35.7804 78.6997 31.3269 78.6904 30.9364 78.6904C22.8847 78.6904 16.1812 77.584 15.7628 63.9724C15.6698 60.8949 13.0944 58.4589 10.0169 58.5705C6.93939 58.6635 4.52202 61.2389 4.615 64.3164C4.93111 74.8412 8.51997 82.2514 15.2607 86.3516C21.0252 89.8475 27.4777 89.8475 30.9364 89.8475C31.3269 89.8475 35.7711 89.8568 40.1875 89.8568C44.5666 89.8661 48.9272 89.8661 49.2991 89.8661C49.5966 89.8661 49.8848 89.8475 50.1638 89.7917H50.1731L74.2538 89.7173C74.449 89.7452 74.6443 89.7545 74.8488 89.7545L133.117 90.0242H133.145C134.493 90.0242 135.794 89.4942 136.752 88.5365C137.719 87.5789 138.258 86.2772 138.258 84.9105C138.258 77.3609 137.124 70.3505 134.892 64.084Z" fill="url(#paint0_linear_32_1442)"/>
<path fill-rule="evenodd" clip-rule="evenodd" d="M43.8507 11.7294C47.3373 14.342 52.3394 13.7934 55.4634 10.8368C52.0791 15.3554 46.1937 16.6757 42.3166 13.7748C38.4395 10.8833 38.0397 4.85846 41.4241 0.339844C39.4716 4.17044 40.3548 9.12604 43.8507 11.7294ZM134.892 64.084C130.179 50.8442 120.704 41.2026 108.236 36.9444C107.753 36.777 107.26 36.6189 106.777 36.4702C95.8706 32.277 95.2291 29.3575 95.1454 24.9784C95.1268 29.3575 94.1877 32.2956 79.8509 37.2698H79.9067C76.8943 38.3483 73.9934 39.7615 71.2692 41.5095C68.8891 43.0343 68.201 46.1954 69.7258 48.5756C71.2507 50.9558 74.4118 51.6438 76.792 50.119C85.1412 44.7636 95.6568 43.4527 104.926 46.6231C114.391 49.8494 121.606 57.2688 125.26 67.5148C126.59 71.2617 127.445 75.3712 127.817 79.7782L92.0214 79.6109C91.6123 79.49 91.1753 79.4342 90.7198 79.4342C90.7105 79.4342 90.7012 79.4342 90.7012 79.4342L52.7764 79.5551H52.6741C52.7857 78.9508 52.9159 78.3557 53.0739 77.77C53.0739 77.77 53.0739 77.77 53.0739 77.7607C53.2227 77.1842 53.3993 76.6264 53.5946 76.0871C55.3146 71.2431 58.6989 67.7472 63.1153 66.241C67.4386 64.7627 72.3664 65.3763 76.2713 67.8867C78.6515 69.4115 81.8127 68.7234 83.3375 66.3433C84.8623 63.9631 84.1743 60.8019 81.7941 59.2771C75.2858 55.1025 67.0575 54.0798 59.8054 56.5622C57.3229 57.4083 55.045 58.6077 52.9995 60.1325L52.8601 24.5693C52.8508 21.4918 50.3497 19.0094 47.2815 19.0094H47.2536C44.1761 19.0187 41.6937 21.529 41.703 24.6158L41.9168 77.77C41.9168 78.0861 41.9447 78.3929 42.0098 78.6997C42.1586 78.709 42.3166 78.709 42.4654 78.6997C42.4654 78.6997 42.087 78.7037 42.0098 78.6997C41.9807 78.9166 42.4004 79.0592 42.4004 79.0592C42.4004 79.0592 41.9803 78.9192 42.0098 78.6997H40.2061C35.7804 78.6997 31.3269 78.6904 30.9364 78.6904C22.8847 78.6904 16.1812 77.584 15.7628 63.9724C15.6698 60.8949 13.0944 58.4589 10.0169 58.5705C6.93939 58.6635 4.52202 61.2389 4.615 64.3164C4.93111 74.8412 8.51997 82.2514 15.2607 86.3516C21.0252 89.8475 27.4777 89.8475 30.9364 89.8475C31.3269 89.8475 35.7711 89.8568 40.1875 89.8568C44.5666 89.8661 48.9272 89.8661 49.2991 89.8661C49.5966 89.8661 49.8848 89.8475 50.1638 89.7917H50.1731L74.2538 89.7173C74.449 89.7452 74.6443 89.7545 74.8488 89.7545L133.117 90.0242H133.145C134.493 90.0242 135.794 89.4942 136.752 88.5365C137.719 87.5789 138.258 86.2772 138.258 84.9105C138.258 77.3609 137.124 70.3505 134.892 64.084Z" fill="url(#paint1_linear_32_1442)" fill-opacity="0.2"/>
<path fill-rule="evenodd" clip-rule="evenodd" d="M43.8507 11.7294C47.3373 14.342 52.3394 13.7934 55.4634 10.8368C52.0791 15.3554 46.1937 16.6757 42.3166 13.7748C38.4395 10.8833 38.0397 4.85846 41.4241 0.339844C39.4716 4.17044 40.3548 9.12604 43.8507 11.7294ZM134.892 64.084C130.179 50.8442 120.704 41.2026 108.236 36.9444C107.753 36.777 107.26 36.6189 106.777 36.4702C95.8706 32.277 95.2291 29.3575 95.1454 24.9784C95.1268 29.3575 94.1877 32.2956 79.8509 37.2698H79.9067C76.8943 38.3483 73.9934 39.7615 71.2692 41.5095C68.8891 43.0343 68.201 46.1954 69.7258 48.5756C71.2507 50.9558 74.4118 51.6438 76.792 50.119C85.1412 44.7636 95.6568 43.4527 104.926 46.6231C114.391 49.8494 121.606 57.2688 125.26 67.5148C126.59 71.2617 127.445 75.3712 127.817 79.7782L92.0214 79.6109C91.6123 79.49 91.1753 79.4342 90.7198 79.4342C90.7105 79.4342 90.7012 79.4342 90.7012 79.4342L52.7764 79.5551H52.6741C52.7857 78.9508 52.9159 78.3557 53.0739 77.77C53.0739 77.77 53.0739 77.77 53.0739 77.7607C53.2227 77.1842 53.3993 76.6264 53.5946 76.0871C55.3146 71.2431 58.6989 67.7472 63.1153 66.241C67.4386 64.7627 72.3664 65.3763 76.2713 67.8867C78.6515 69.4115 81.8127 68.7234 83.3375 66.3433C84.8623 63.9631 84.1743 60.8019 81.7941 59.2771C75.2858 55.1025 67.0575 54.0798 59.8054 56.5622C57.3229 57.4083 55.045 58.6077 52.9995 60.1325L52.8601 24.5693C52.8508 21.4918 50.3497 19.0094 47.2815 19.0094H47.2536C44.1761 19.0187 41.6937 21.529 41.703 24.6158L41.9168 77.77C41.9168 78.0861 41.9447 78.3929 42.0098 78.6997C42.1586 78.709 42.3166 78.709 42.4654 78.6997C42.4654 78.6997 42.087 78.7037 42.0098 78.6997C41.9807 78.9166 42.4004 79.0592 42.4004 79.0592C42.4004 79.0592 41.9803 78.9192 42.0098 78.6997H40.2061C35.7804 78.6997 31.3269 78.6904 30.9364 78.6904C22.8847 78.6904 16.1812 77.584 15.7628 63.9724C15.6698 60.8949 13.0944 58.4589 10.0169 58.5705C6.93939 58.6635 4.52202 61.2389 4.615 64.3164C4.93111 74.8412 8.51997 82.2514 15.2607 86.3516C21.0252 89.8475 27.4777 89.8475 30.9364 89.8475C31.3269 89.8475 35.7711 89.8568 40.1875 89.8568C44.5666 89.8661 48.9272 89.8661 49.2991 89.8661C49.5966 89.8661 49.8848 89.8475 50.1638 89.7917H50.1731L74.2538 89.7173C74.449 89.7452 74.6443 89.7545 74.8488 89.7545L133.117 90.0242H133.145C134.493 90.0242 135.794 89.4942 136.752 88.5365C137.719 87.5789 138.258 86.2772 138.258 84.9105C138.258 77.3609 137.124 70.3505 134.892 64.084Z" fill="url(#paint2_radial_32_1442)" fill-opacity="0.2"/>
</g>
<path d="M39.1091 112.596H37.4653V105.562C37.4653 104.111 37.2317 103.04 36.7643 102.347C36.2969 101.638 35.604 101.283 34.6854 101.283C33.7184 101.283 32.8643 101.622 32.123 102.298C31.3816 102.975 30.8579 103.846 30.5517 104.909V112.596H28.9079V105.562C28.9079 104.079 28.6742 102.999 28.2068 102.323C27.7556 101.63 27.0707 101.283 26.1521 101.283C25.2012 101.283 24.3471 101.614 23.5896 102.274C22.8483 102.935 22.3246 103.805 22.0184 104.885V112.596H20.3745V100.002H21.8733V102.854C22.389 101.887 23.0659 101.138 23.9039 100.606C24.7419 100.058 25.6686 99.7844 26.6839 99.7844C27.7314 99.7844 28.5775 100.091 29.2221 100.703C29.8667 101.299 30.2616 102.073 30.4066 103.024C31.567 100.864 33.1866 99.7844 35.2655 99.7844C36.6837 99.7844 37.6748 100.284 38.2389 101.283C38.8191 102.266 39.1091 103.58 39.1091 105.223V112.596ZM55.2075 112.838C53.9988 112.838 52.919 112.54 51.9682 111.944C51.0335 111.347 50.3002 110.558 49.7684 109.575C49.2366 108.576 48.9707 107.496 48.9707 106.335C48.9707 105.159 49.2366 104.079 49.7684 103.096C50.3163 102.097 51.0577 101.299 51.9924 100.703C52.9432 100.091 54.0149 99.7844 55.2075 99.7844C56.4162 99.7844 57.4879 100.091 58.4226 100.703C59.3734 101.299 60.1147 102.097 60.6466 103.096C61.1945 104.079 61.4685 105.159 61.4685 106.335C61.4685 107.496 61.2026 108.576 60.6707 109.575C60.1389 110.558 59.3976 111.347 58.4468 111.944C57.512 112.54 56.4323 112.838 55.2075 112.838ZM50.6387 106.36C50.6387 107.294 50.8401 108.148 51.243 108.922C51.662 109.679 52.218 110.284 52.911 110.735C53.604 111.17 54.3695 111.388 55.2075 111.388C56.0455 111.388 56.811 111.162 57.504 110.711C58.197 110.26 58.753 109.647 59.172 108.874C59.591 108.1 59.8005 107.246 59.8005 106.311C59.8005 105.377 59.591 104.522 59.172 103.749C58.753 102.975 58.197 102.363 57.504 101.912C56.811 101.46 56.0455 101.235 55.2075 101.235C54.3856 101.235 53.6281 101.468 52.9352 101.936C52.2422 102.387 51.6862 102.999 51.2672 103.773C50.8482 104.547 50.6387 105.409 50.6387 106.36ZM70.4545 108.97C70.4545 108.197 70.6801 107.528 71.1313 106.964C71.5826 106.384 72.203 105.933 72.9927 105.61C73.7985 105.288 74.7251 105.127 75.7727 105.127C76.3851 105.127 77.0216 105.183 77.6824 105.296C78.3431 105.393 78.9314 105.53 79.4471 105.707V104.643C79.4471 103.58 79.1328 102.734 78.5043 102.105C77.8758 101.477 77.0055 101.162 75.8935 101.162C75.2328 101.162 74.572 101.291 73.9113 101.549C73.2505 101.791 72.5656 102.153 71.8565 102.637L71.228 101.477C72.0499 100.912 72.8557 100.493 73.6454 100.22C74.4351 99.9294 75.2408 99.7844 76.0628 99.7844C77.6099 99.7844 78.8347 100.228 79.7372 101.114C80.6396 102 81.0909 103.225 81.0909 104.788V110.614C81.0909 111.049 81.2923 111.275 81.6952 111.291V112.596C81.3407 112.645 81.0909 112.661 80.9458 112.645C80.5429 112.629 80.2367 112.5 80.0272 112.258C79.8177 112.016 79.7049 111.758 79.6888 111.484L79.6646 110.566C79.1006 111.291 78.3673 111.855 77.4648 112.258C76.5623 112.645 75.6437 112.838 74.709 112.838C73.8871 112.838 73.1539 112.669 72.5092 112.331C71.8646 111.976 71.3569 111.509 70.9863 110.928C70.6317 110.332 70.4545 109.679 70.4545 108.97ZM78.8911 109.937C79.2617 109.502 79.4471 109.099 79.4471 108.729V106.891C78.3351 106.456 77.1747 106.239 75.9661 106.239C74.7896 106.239 73.8388 106.472 73.1136 106.94C72.3884 107.407 72.0258 108.044 72.0258 108.85C72.0258 109.542 72.2917 110.171 72.8235 110.735C73.3714 111.299 74.1289 111.581 75.0958 111.581C75.8855 111.581 76.6187 111.428 77.2956 111.122C77.9886 110.816 78.5204 110.421 78.8911 109.937ZM91.9671 94.9497H93.6109V109.744C93.6109 110.372 93.7157 110.783 93.9252 110.977C94.1508 111.17 94.4328 111.267 94.7713 111.267C95.0614 111.267 95.3514 111.235 95.6415 111.17C95.9477 111.106 96.1975 111.041 96.3909 110.977L96.681 112.306C96.3748 112.435 95.9961 112.54 95.5448 112.621C95.1097 112.701 94.731 112.741 94.4087 112.741C93.6673 112.741 93.0711 112.524 92.6198 112.089C92.1847 111.654 91.9671 111.057 91.9671 110.3V94.9497ZM105.806 94.9497H107.449V109.744C107.449 110.372 107.554 110.783 107.764 110.977C107.989 111.17 108.271 111.267 108.61 111.267C108.9 111.267 109.19 111.235 109.48 111.17C109.786 111.106 110.036 111.041 110.229 110.977L110.519 112.306C110.213 112.435 109.835 112.54 109.383 112.621C108.948 112.701 108.569 112.741 108.247 112.741C107.506 112.741 106.91 112.524 106.458 112.089C106.023 111.654 105.806 111.057 105.806 110.3V94.9497ZM118.556 108.97C118.556 108.197 118.782 107.528 119.233 106.964C119.684 106.384 120.305 105.933 121.095 105.61C121.9 105.288 122.827 105.127 123.874 105.127C124.487 105.127 125.123 105.183 125.784 105.296C126.445 105.393 127.033 105.53 127.549 105.707V104.643C127.549 103.58 127.235 102.734 126.606 102.105C125.978 101.477 125.107 101.162 123.995 101.162C123.335 101.162 122.674 101.291 122.013 101.549C121.352 101.791 120.667 102.153 119.958 102.637L119.33 101.477C120.152 100.912 120.958 100.493 121.747 100.22C122.537 99.9294 123.343 99.7844 124.165 99.7844C125.712 99.7844 126.936 100.228 127.839 101.114C128.741 102 129.193 103.225 129.193 104.788V110.614C129.193 111.049 129.394 111.275 129.797 111.291V112.596C129.443 112.645 129.193 112.661 129.048 112.645C128.645 112.629 128.339 112.5 128.129 112.258C127.92 112.016 127.807 111.758 127.791 111.484L127.766 110.566C127.202 111.291 126.469 111.855 125.567 112.258C124.664 112.645 123.746 112.838 122.811 112.838C121.989 112.838 121.256 112.669 120.611 112.331C119.966 111.976 119.459 111.509 119.088 110.928C118.734 110.332 118.556 109.679 118.556 108.97ZM126.993 109.937C127.364 109.502 127.549 109.099 127.549 108.729V106.891C126.437 106.456 125.277 106.239 124.068 106.239C122.891 106.239 121.941 106.472 121.215 106.94C120.49 107.407 120.128 108.044 120.128 108.85C120.128 109.542 120.393 110.171 120.925 110.735C121.473 111.299 122.231 111.581 123.198 111.581C123.987 111.581 124.721 111.428 125.397 111.122C126.09 110.816 126.622 110.421 126.993 109.937Z" fill="url(#paint3_linear_32_1442)"/>
<path d="M39.1091 112.596H37.4653V105.562C37.4653 104.111 37.2317 103.04 36.7643 102.347C36.2969 101.638 35.604 101.283 34.6854 101.283C33.7184 101.283 32.8643 101.622 32.123 102.298C31.3816 102.975 30.8579 103.846 30.5517 104.909V112.596H28.9079V105.562C28.9079 104.079 28.6742 102.999 28.2068 102.323C27.7556 101.63 27.0707 101.283 26.1521 101.283C25.2012 101.283 24.3471 101.614 23.5896 102.274C22.8483 102.935 22.3246 103.805 22.0184 104.885V112.596H20.3745V100.002H21.8733V102.854C22.389 101.887 23.0659 101.138 23.9039 100.606C24.7419 100.058 25.6686 99.7844 26.6839 99.7844C27.7314 99.7844 28.5775 100.091 29.2221 100.703C29.8667 101.299 30.2616 102.073 30.4066 103.024C31.567 100.864 33.1866 99.7844 35.2655 99.7844C36.6837 99.7844 37.6748 100.284 38.2389 101.283C38.8191 102.266 39.1091 103.58 39.1091 105.223V112.596ZM55.2075 112.838C53.9988 112.838 52.919 112.54 51.9682 111.944C51.0335 111.347 50.3002 110.558 49.7684 109.575C49.2366 108.576 48.9707 107.496 48.9707 106.335C48.9707 105.159 49.2366 104.079 49.7684 103.096C50.3163 102.097 51.0577 101.299 51.9924 100.703C52.9432 100.091 54.0149 99.7844 55.2075 99.7844C56.4162 99.7844 57.4879 100.091 58.4226 100.703C59.3734 101.299 60.1147 102.097 60.6466 103.096C61.1945 104.079 61.4685 105.159 61.4685 106.335C61.4685 107.496 61.2026 108.576 60.6707 109.575C60.1389 110.558 59.3976 111.347 58.4468 111.944C57.512 112.54 56.4323 112.838 55.2075 112.838ZM50.6387 106.36C50.6387 107.294 50.8401 108.148 51.243 108.922C51.662 109.679 52.218 110.284 52.911 110.735C53.604 111.17 54.3695 111.388 55.2075 111.388C56.0455 111.388 56.811 111.162 57.504 110.711C58.197 110.26 58.753 109.647 59.172 108.874C59.591 108.1 59.8005 107.246 59.8005 106.311C59.8005 105.377 59.591 104.522 59.172 103.749C58.753 102.975 58.197 102.363 57.504 101.912C56.811 101.46 56.0455 101.235 55.2075 101.235C54.3856 101.235 53.6281 101.468 52.9352 101.936C52.2422 102.387 51.6862 102.999 51.2672 103.773C50.8482 104.547 50.6387 105.409 50.6387 106.36ZM70.4545 108.97C70.4545 108.197 70.6801 107.528 71.1313 106.964C71.5826 106.384 72.203 105.933 72.9927 105.61C73.7985 105.288 74.7251 105.127 75.7727 105.127C76.3851 105.127 77.0216 105.183 77.6824 105.296C78.3431 105.393 78.9314 105.53 79.4471 105.707V104.643C79.4471 103.58 79.1328 102.734 78.5043 102.105C77.8758 101.477 77.0055 101.162 75.8935 101.162C75.2328 101.162 74.572 101.291 73.9113 101.549C73.2505 101.791 72.5656 102.153 71.8565 102.637L71.228 101.477C72.0499 100.912 72.8557 100.493 73.6454 100.22C74.4351 99.9294 75.2408 99.7844 76.0628 99.7844C77.6099 99.7844 78.8347 100.228 79.7372 101.114C80.6396 102 81.0909 103.225 81.0909 104.788V110.614C81.0909 111.049 81.2923 111.275 81.6952 111.291V112.596C81.3407 112.645 81.0909 112.661 80.9458 112.645C80.5429 112.629 80.2367 112.5 80.0272 112.258C79.8177 112.016 79.7049 111.758 79.6888 111.484L79.6646 110.566C79.1006 111.291 78.3673 111.855 77.4648 112.258C76.5623 112.645 75.6437 112.838 74.709 112.838C73.8871 112.838 73.1539 112.669 72.5092 112.331C71.8646 111.976 71.3569 111.509 70.9863 110.928C70.6317 110.332 70.4545 109.679 70.4545 108.97ZM78.8911 109.937C79.2617 109.502 79.4471 109.099 79.4471 108.729V106.891C78.3351 106.456 77.1747 106.239 75.9661 106.239C74.7896 106.239 73.8388 106.472 73.1136 106.94C72.3884 107.407 72.0258 108.044 72.0258 108.85C72.0258 109.542 72.2917 110.171 72.8235 110.735C73.3714 111.299 74.1289 111.581 75.0958 111.581C75.8855 111.581 76.6187 111.428 77.2956 111.122C77.9886 110.816 78.5204 110.421 78.8911 109.937ZM91.9671 94.9497H93.6109V109.744C93.6109 110.372 93.7157 110.783 93.9252 110.977C94.1508 111.17 94.4328 111.267 94.7713 111.267C95.0614 111.267 95.3514 111.235 95.6415 111.17C95.9477 111.106 96.1975 111.041 96.3909 110.977L96.681 112.306C96.3748 112.435 95.9961 112.54 95.5448 112.621C95.1097 112.701 94.731 112.741 94.4087 112.741C93.6673 112.741 93.0711 112.524 92.6198 112.089C92.1847 111.654 91.9671 111.057 91.9671 110.3V94.9497ZM105.806 94.9497H107.449V109.744C107.449 110.372 107.554 110.783 107.764 110.977C107.989 111.17 108.271 111.267 108.61 111.267C108.9 111.267 109.19 111.235 109.48 111.17C109.786 111.106 110.036 111.041 110.229 110.977L110.519 112.306C110.213 112.435 109.835 112.54 109.383 112.621C108.948 112.701 108.569 112.741 108.247 112.741C107.506 112.741 106.91 112.524 106.458 112.089C106.023 111.654 105.806 111.057 105.806 110.3V94.9497ZM118.556 108.97C118.556 108.197 118.782 107.528 119.233 106.964C119.684 106.384 120.305 105.933 121.095 105.61C121.9 105.288 122.827 105.127 123.874 105.127C124.487 105.127 125.123 105.183 125.784 105.296C126.445 105.393 127.033 105.53 127.549 105.707V104.643C127.549 103.58 127.235 102.734 126.606 102.105C125.978 101.477 125.107 101.162 123.995 101.162C123.335 101.162 122.674 101.291 122.013 101.549C121.352 101.791 120.667 102.153 119.958 102.637L119.33 101.477C120.152 100.912 120.958 100.493 121.747 100.22C122.537 99.9294 123.343 99.7844 124.165 99.7844C125.712 99.7844 126.936 100.228 127.839 101.114C128.741 102 129.193 103.225 129.193 104.788V110.614C129.193 111.049 129.394 111.275 129.797 111.291V112.596C129.443 112.645 129.193 112.661 129.048 112.645C128.645 112.629 128.339 112.5 128.129 112.258C127.92 112.016 127.807 111.758 127.791 111.484L127.766 110.566C127.202 111.291 126.469 111.855 125.567 112.258C124.664 112.645 123.746 112.838 122.811 112.838C121.989 112.838 121.256 112.669 120.611 112.331C119.966 111.976 119.459 111.509 119.088 110.928C118.734 110.332 118.556 109.679 118.556 108.97ZM126.993 109.937C127.364 109.502 127.549 109.099 127.549 108.729V106.891C126.437 106.456 125.277 106.239 124.068 106.239C122.891 106.239 121.941 106.472 121.215 106.94C120.49 107.407 120.128 108.044 120.128 108.85C120.128 109.542 120.393 110.171 120.925 110.735C121.473 111.299 122.231 111.581 123.198 111.581C123.987 111.581 124.721 111.428 125.397 111.122C126.09 110.816 126.622 110.421 126.993 109.937Z" fill="url(#paint4_linear_32_1442)" fill-opacity="0.2"/>
<path d="M39.1091 112.596H37.4653V105.562C37.4653 104.111 37.2317 103.04 36.7643 102.347C36.2969 101.638 35.604 101.283 34.6854 101.283C33.7184 101.283 32.8643 101.622 32.123 102.298C31.3816 102.975 30.8579 103.846 30.5517 104.909V112.596H28.9079V105.562C28.9079 104.079 28.6742 102.999 28.2068 102.323C27.7556 101.63 27.0707 101.283 26.1521 101.283C25.2012 101.283 24.3471 101.614 23.5896 102.274C22.8483 102.935 22.3246 103.805 22.0184 104.885V112.596H20.3745V100.002H21.8733V102.854C22.389 101.887 23.0659 101.138 23.9039 100.606C24.7419 100.058 25.6686 99.7844 26.6839 99.7844C27.7314 99.7844 28.5775 100.091 29.2221 100.703C29.8667 101.299 30.2616 102.073 30.4066 103.024C31.567 100.864 33.1866 99.7844 35.2655 99.7844C36.6837 99.7844 37.6748 100.284 38.2389 101.283C38.8191 102.266 39.1091 103.58 39.1091 105.223V112.596ZM55.2075 112.838C53.9988 112.838 52.919 112.54 51.9682 111.944C51.0335 111.347 50.3002 110.558 49.7684 109.575C49.2366 108.576 48.9707 107.496 48.9707 106.335C48.9707 105.159 49.2366 104.079 49.7684 103.096C50.3163 102.097 51.0577 101.299 51.9924 100.703C52.9432 100.091 54.0149 99.7844 55.2075 99.7844C56.4162 99.7844 57.4879 100.091 58.4226 100.703C59.3734 101.299 60.1147 102.097 60.6466 103.096C61.1945 104.079 61.4685 105.159 61.4685 106.335C61.4685 107.496 61.2026 108.576 60.6707 109.575C60.1389 110.558 59.3976 111.347 58.4468 111.944C57.512 112.54 56.4323 112.838 55.2075 112.838ZM50.6387 106.36C50.6387 107.294 50.8401 108.148 51.243 108.922C51.662 109.679 52.218 110.284 52.911 110.735C53.604 111.17 54.3695 111.388 55.2075 111.388C56.0455 111.388 56.811 111.162 57.504 110.711C58.197 110.26 58.753 109.647 59.172 108.874C59.591 108.1 59.8005 107.246 59.8005 106.311C59.8005 105.377 59.591 104.522 59.172 103.749C58.753 102.975 58.197 102.363 57.504 101.912C56.811 101.46 56.0455 101.235 55.2075 101.235C54.3856 101.235 53.6281 101.468 52.9352 101.936C52.2422 102.387 51.6862 102.999 51.2672 103.773C50.8482 104.547 50.6387 105.409 50.6387 106.36ZM70.4545 108.97C70.4545 108.197 70.6801 107.528 71.1313 106.964C71.5826 106.384 72.203 105.933 72.9927 105.61C73.7985 105.288 74.7251 105.127 75.7727 105.127C76.3851 105.127 77.0216 105.183 77.6824 105.296C78.3431 105.393 78.9314 105.53 79.4471 105.707V104.643C79.4471 103.58 79.1328 102.734 78.5043 102.105C77.8758 101.477 77.0055 101.162 75.8935 101.162C75.2328 101.162 74.572 101.291 73.9113 101.549C73.2505 101.791 72.5656 102.153 71.8565 102.637L71.228 101.477C72.0499 100.912 72.8557 100.493 73.6454 100.22C74.4351 99.9294 75.2408 99.7844 76.0628 99.7844C77.6099 99.7844 78.8347 100.228 79.7372 101.114C80.6396 102 81.0909 103.225 81.0909 104.788V110.614C81.0909 111.049 81.2923 111.275 81.6952 111.291V112.596C81.3407 112.645 81.0909 112.661 80.9458 112.645C80.5429 112.629 80.2367 112.5 80.0272 112.258C79.8177 112.016 79.7049 111.758 79.6888 111.484L79.6646 110.566C79.1006 111.291 78.3673 111.855 77.4648 112.258C76.5623 112.645 75.6437 112.838 74.709 112.838C73.8871 112.838 73.1539 112.669 72.5092 112.331C71.8646 111.976 71.3569 111.509 70.9863 110.928C70.6317 110.332 70.4545 109.679 70.4545 108.97ZM78.8911 109.937C79.2617 109.502 79.4471 109.099 79.4471 108.729V106.891C78.3351 106.456 77.1747 106.239 75.9661 106.239C74.7896 106.239 73.8388 106.472 73.1136 106.94C72.3884 107.407 72.0258 108.044 72.0258 108.85C72.0258 109.542 72.2917 110.171 72.8235 110.735C73.3714 111.299 74.1289 111.581 75.0958 111.581C75.8855 111.581 76.6187 111.428 77.2956 111.122C77.9886 110.816 78.5204 110.421 78.8911 109.937ZM91.9671 94.9497H93.6109V109.744C93.6109 110.372 93.7157 110.783 93.9252 110.977C94.1508 111.17 94.4328 111.267 94.7713 111.267C95.0614 111.267 95.3514 111.235 95.6415 111.17C95.9477 111.106 96.1975 111.041 96.3909 110.977L96.681 112.306C96.3748 112.435 95.9961 112.54 95.5448 112.621C95.1097 112.701 94.731 112.741 94.4087 112.741C93.6673 112.741 93.0711 112.524 92.6198 112.089C92.1847 111.654 91.9671 111.057 91.9671 110.3V94.9497ZM105.806 94.9497H107.449V109.744C107.449 110.372 107.554 110.783 107.764 110.977C107.989 111.17 108.271 111.267 108.61 111.267C108.9 111.267 109.19 111.235 109.48 111.17C109.786 111.106 110.036 111.041 110.229 110.977L110.519 112.306C110.213 112.435 109.835 112.54 109.383 112.621C108.948 112.701 108.569 112.741 108.247 112.741C107.506 112.741 106.91 112.524 106.458 112.089C106.023 111.654 105.806 111.057 105.806 110.3V94.9497ZM118.556 108.97C118.556 108.197 118.782 107.528 119.233 106.964C119.684 106.384 120.305 105.933 121.095 105.61C121.9 105.288 122.827 105.127 123.874 105.127C124.487 105.127 125.123 105.183 125.784 105.296C126.445 105.393 127.033 105.53 127.549 105.707V104.643C127.549 103.58 127.235 102.734 126.606 102.105C125.978 101.477 125.107 101.162 123.995 101.162C123.335 101.162 122.674 101.291 122.013 101.549C121.352 101.791 120.667 102.153 119.958 102.637L119.33 101.477C120.152 100.912 120.958 100.493 121.747 100.22C122.537 99.9294 123.343 99.7844 124.165 99.7844C125.712 99.7844 126.936 100.228 127.839 101.114C128.741 102 129.193 103.225 129.193 104.788V110.614C129.193 111.049 129.394 111.275 129.797 111.291V112.596C129.443 112.645 129.193 112.661 129.048 112.645C128.645 112.629 128.339 112.5 128.129 112.258C127.92 112.016 127.807 111.758 127.791 111.484L127.766 110.566C127.202 111.291 126.469 111.855 125.567 112.258C124.664 112.645 123.746 112.838 122.811 112.838C121.989 112.838 121.256 112.669 120.611 112.331C119.966 111.976 119.459 111.509 119.088 110.928C118.734 110.332 118.556 109.679 118.556 108.97ZM126.993 109.937C127.364 109.502 127.549 109.099 127.549 108.729V106.891C126.437 106.456 125.277 106.239 124.068 106.239C122.891 106.239 121.941 106.472 121.215 106.94C120.49 107.407 120.128 108.044 120.128 108.85C120.128 109.542 120.393 110.171 120.925 110.735C121.473 111.299 122.231 111.581 123.198 111.581C123.987 111.581 124.721 111.428 125.397 111.122C126.09 110.816 126.622 110.421 126.993 109.937Z" fill="url(#paint5_radial_32_1442)" fill-opacity="0.2"/>
</g>
<defs>
<filter id="filter0_d_32_1442" x="0.615234" y="0.339844" width="141.644" height="120.498" filterUnits="userSpaceOnUse" color-interpolation-filters="sRGB">
<feFlood flood-opacity="0" result="BackgroundImageFix"/>
<feColorMatrix in="SourceAlpha" type="matrix" values="0 0 0 0 0 0 0 0 0 0 0 0 0 0 0 0 0 0 127 0" result="hardAlpha"/>
<feOffset dy="4"/>
<feGaussianBlur stdDeviation="2"/>
<feComposite in2="hardAlpha" operator="out"/>
<feColorMatrix type="matrix" values="0 0 0 0 0 0 0 0 0 0 0 0 0 0 0 0 0 0 0.25 0"/>
<feBlend mode="normal" in2="BackgroundImageFix" result="effect1_dropShadow_32_1442"/>
<feBlend mode="normal" in="SourceGraphic" in2="effect1_dropShadow_32_1442" result="shape"/>
</filter>
<linearGradient id="paint0_linear_32_1442" x1="-4.74936" y1="-6.53377" x2="139.402" y2="102.001" gradientUnits="userSpaceOnUse">
<stop stop-color="#A7F07F"/>
<stop offset="1" stop-color="#308900"/>
</linearGradient>
<linearGradient id="paint1_linear_32_1442" x1="4.6123" y1="0.339844" x2="139.009" y2="58.3907" gradientUnits="userSpaceOnUse">
<stop/>
<stop offset="1" stop-color="#FFF500"/>
</linearGradient>
<radialGradient id="paint2_radial_32_1442" cx="0" cy="0" r="1" gradientUnits="userSpaceOnUse" gradientTransform="translate(71.4352 -26.9391) rotate(90) scale(156.948 89.6665)">
<stop stop-color="white"/>
<stop offset="1" stop-color="#7BBA58" stop-opacity="0.33"/>
</radialGradient>
<linearGradient id="paint3_linear_32_1442" x1="10.681" y1="87.3874" x2="49.569" y2="164.079" gradientUnits="userSpaceOnUse">
<stop stop-color="#A7F07F"/>
<stop offset="1" stop-color="#308900"/>
</linearGradient>
<linearGradient id="paint4_linear_32_1442" x1="18.5615" y1="89.5964" x2="77.4387" y2="156.208" gradientUnits="userSpaceOnUse">
<stop/>
<stop offset="1" stop-color="#FFF500"/>
</linearGradient>
<radialGradient id="paint5_radial_32_1442" cx="0" cy="0" r="1" gradientUnits="userSpaceOnUse" gradientTransform="translate(74.8118 80.8296) rotate(90) scale(50.4393 75.4796)">
<stop stop-color="white"/>
<stop offset="1" stop-color="#7BBA58" stop-opacity="0.33"/>
</radialGradient>
<clipPath id="clip0_32_1442">
<rect width="133.643" height="89.6843" fill="white" transform="translate(4.61523 0.339844)"/>
</clipPath>
</defs>
</svg>
